<?xml version="1.0" encoding="UTF-8"?>
<!DOCTYPE svg PUBLIC "-//W3C//DTD SVG 1.1//EN" "http://www.w3.org/Graphics/SVG/1.1/DTD/svg11.dtd">
<!-- Creator: CorelDRAW -->
<svg xmlns="http://www.w3.org/2000/svg" xml:space="preserve" width="100px" height="100px" version="1.1" style="shape-rendering:geometricPrecision; text-rendering:geometricPrecision; image-rendering:optimizeQuality; fill-rule:evenodd; clip-rule:evenodd"
viewBox="0 0 57.04 57.04"
 xmlns:xlink="http://www.w3.org/1999/xlink"
 xmlns:xodm="http://www.corel.com/coreldraw/odm/2003">
 <defs>
  <style type="text/css">
   <![CDATA[
    .fil0 {fill:none}
    .fil3 {fill:#336596}
    .fil1 {fill:#336596}
    .fil2 {fill:red}
   ]]>
  </style>
 </defs>
 <g id="Layer_x0020_1">
  <metadata id="CorelCorpID_0Corel-Layer"/>
  <rect class="fil0" width="57.04" height="57.04"/>
  <path class="fil1" d="M28.52 3.52c7.39,0 14.03,3.21 18.61,8.31 -4.13,-3.37 -9.39,-5.39 -15.14,-5.39 -13.23,0 -23.95,10.73 -23.95,23.96 0,10.7 7.02,19.77 16.71,22.83 -12.02,-1.81 -21.23,-12.19 -21.23,-24.71 0,-13.81 11.19,-25 25,-25z"/>
  <path class="fil2" d="M32.36 8.23c7.44,0 14.03,3.61 18.14,9.17 -4.01,-4.29 -9.71,-6.98 -16.05,-6.98 -12.11,0 -21.93,9.82 -21.93,21.94 0,8.45 4.77,15.78 11.78,19.44 -8.46,-3.24 -14.47,-11.44 -14.47,-21.04 0,-12.44 10.09,-22.53 22.53,-22.53z"/>
  <path class="fil3" d="M25.81 27.3c0,-1.88 0.14,-3.35 0.34,-5.26 0.14,-1.3 0.88,-6.04 -0.88,-6.04 -0.72,0 -1.47,0.96 -1.81,1.42 -0.24,0.32 -0.44,0.62 -0.66,0.95 -1.56,2.36 -2.37,3.64 -3.8,6.21 -0.68,1.23 -3.94,7.52 -3.94,7.78 0,0.63 0.87,3.35 1.07,4.19 0.35,-0.25 0.86,-1.51 1.11,-2.01 0.37,-0.73 0.69,-1.38 1.04,-2.08 0.34,-0.68 0.66,-1.39 1.04,-2.08 0.39,-0.7 0.75,-1.32 1.44,-1.68 0.57,0.86 0.43,0.67 0.43,2.26 0,1.48 -1.83,10.14 -1.83,11.51 0,0.62 0.54,0.97 1.18,0.97 0.9,0 1.53,-1.8 2.21,-2.95 1.37,-2.29 2.91,-5.34 4.35,-7.82l1.84 -3.32c0.32,-0.56 1.4,-2.54 1.96,-2.78 0.42,-0.18 0.52,0.05 0.59,0.87 0.04,0.46 -0.06,0.52 -0.08,1.04 -0.04,0.76 -0.16,1.41 -0.22,2.15 -0.06,0.68 -0.21,1.46 -0.29,2.08 -0.27,2.06 -1.21,9.43 -1.21,10.73 0,0.89 0.47,1.93 1.3,1.64 0.69,-0.25 1.96,-3.13 2.35,-4.01 0.66,-1.48 3.31,-7.25 4.15,-8.54 1.39,-2.13 2.71,-1.88 3.94,0.23 0.58,1 2.09,5.83 4.82,5.83 1.91,0 2.88,-1 4.17,-2.39 0.46,-0.49 2.35,-2.96 2.5,-3.52 -0.36,0.08 -0.45,0.17 -0.73,0.34 -1.08,0.68 -2.11,0.84 -3.36,0.84 -1.18,0 -2.22,-1.15 -2.65,-1.97 -1.28,-2.41 -1.12,-4.34 -2.3,-6.96 -2.88,-6.43 -5.92,1.36 -7.93,4.65 -2.18,3.56 0.82,-10.53 0.55,-12.31 -0.26,-1.72 -0.83,-4.68 -3.05,-1.8 -0.8,1.03 -1.02,1.49 -1.61,2.69l-4.63 8.28c-0.06,0.1 -1.4,2 -1.4,0.86z"/>
 </g>
</svg>
