<svg xmlns="http://www.w3.org/2000/svg" xml:space="preserve" width="233.36px" height="50px" version="1.1"
    style="shape-rendering:geometricPrecision; text-rendering:geometricPrecision; image-rendering:optimizeQuality; fill-rule:evenodd; clip-rule:evenodd"
    viewBox="0 0 15228.66 3262.89" xmlns:xlink="http://www.w3.org/1999/xlink"
    xmlns:xodm="http://www.corel.com/coreldraw/odm/2003">
    <defs>
        <style type="text/css">
            <![CDATA[
            .fil1 {
                fill: #332B2B
            }

            .fil4 {
                fill: #336594
            }

            .fil0 {
                fill: #336596
            }

            .fil3 {
                fill: #E12028
            }

            .fil2 {
                fill: #E52028
            }
            ]]>
        </style>
    </defs>
    <g id="Layer_x0020_1">
        <metadata id="CorelCorpID_0Corel-Layer" />
        <g id="_2830585680992">
            <path class="fil0"
                d="M1603.85 1611.4c0,-138.64 10.17,-247.36 25.03,-387.84 10.22,-96.63 64.76,-445.85 -64.73,-445.85 -53.12,0 -108.64,70.38 -133.92,104.26 -90.59,121.39 -211.29,321.55 -286.53,451.89l-172.38 319.88c-15.04,30.13 -161.45,330.19 -161.45,330.83 0,46.49 64.88,247.38 79.4,309.65 25.16,-18.44 136.22,-256.58 158.79,-301.71 41.37,-82.73 100,-234.18 182.61,-277.89 42.38,63.27 31.76,49.32 31.76,166.74 0,109.82 -134.97,748.71 -134.97,849.56 0,46.26 40.32,71.46 87.34,71.46 63.82,0 89.88,-91 117.57,-136.51 17.18,-28.26 28.23,-51.75 45.82,-81.22 17.06,-28.58 29.44,-52.83 45.49,-81.53l275.1 -495.08c15.54,-26.9 29.6,-53.09 45.27,-81.76 38.37,-70.21 148.26,-271.11 187.69,-320.47 14.4,-18.02 29.53,-40.37 47.7,-48.16 31.22,-13.4 38.21,3.7 43.59,63.86 3.05,34.15 -4.49,38.91 -6.23,77.28l-93.94 779.47c-7.36,50.84 -95.85,501.94 63.23,445.36 43.12,-15.33 79.27,-96.07 99.49,-139.73l222.68 -476.03c13.11,-30.79 25.49,-48.76 38.59,-80.5l119.15 -230.21c102.01,-157.27 200.13,-138.45 290.87,17.43l82.92 179.1c44.83,90.51 148.83,251.4 272.64,251.4 141.03,0 212.57,-73.8 307.77,-176.56 33.86,-36.55 173.45,-218.74 184.5,-260.13 -78.06,18.19 -451.06,325.49 -585.63,-311.58 -25.79,-122.09 -110.9,-442.71 -255.99,-442.71 -78.26,0 -119.41,60.35 -156.33,105.69 -94.27,115.76 -260.78,442.33 -282.43,456.91 -71.7,48.26 -0.19,-374.61 0.74,-381.31 13.76,-99.03 77.63,-497.88 67.6,-564.62 -19.05,-126.89 -61.41,-344.91 -225.14,-132.84 -59.14,76.59 -75.36,110.63 -118.98,198.63 -61.35,123.79 -191.41,339.61 -262.02,476.37 -5.7,11.05 -182.66,321.98 -182.66,198.45z" />
            <path class="fil0"
                d="M1143.34 3254.95c-6.28,-8.57 -172.12,-136.01 -220.3,-184.63l-36.71 -34.74c-1.2,-1.12 -2.93,-2.7 -4.12,-3.83l-155.2 -170.33c-208.55,-266.24 -315.34,-514.45 -372.16,-850.58 -37.75,-223.3 -4.59,-502.2 68.76,-722.17 63.74,-191.16 168.48,-368.5 300.78,-517.03 19.57,-21.97 25.19,-33.26 47.7,-55.52 200.56,-198.29 405.99,-337.83 693.8,-433.67 179.81,-59.87 323.19,-86.36 519.34,-92.02 37.14,-1.07 53.63,-11.74 93.59,-7.31 33.08,3.67 51.67,7.33 96.84,6.92 150.56,-1.39 373.28,51.12 515.11,96.26 48.15,15.32 101.31,42.99 151.7,54.73 -20.5,-30.61 -99.54,-68.78 -138.32,-91.93 -127.29,-76 -366.15,-162.43 -517.51,-197.07 -339.02,-77.6 -697.31,-70.58 -1034.43,35.86 -190.68,60.2 -314.41,129.8 -477.36,237.23l-196.55 160.74c-22.42,22.67 -38.98,37.34 -57.5,61.6 -19.23,25.21 -37.32,38.18 -56.77,62.32l-101.62 136.58c-15.63,24.55 -30.82,46.92 -45.35,73.76 -64.9,119.9 -142.36,281.22 -170.28,417.26l-36.78 201.41c-4.94,38.22 0.98,76.87 -4.24,114.87 -3.05,22.25 -4.93,45.5 -5.77,69.54l0 59.83c6.87,212.69 83.56,469.67 169.47,648.18 95.48,198.41 235,399.62 396.15,548.68l63.51 55.6c90.44,90.57 404,293.78 514.22,319.46z" />
            <path class="fil1"
                d="M4446.33 396.61c0,48.28 95.28,7.09 95.28,127.04l0 881.32c0,119.95 -95.28,78.75 -95.28,127.03l0 39.71 341.41 0 0 -63.53c-93.05,-7.74 -95.69,-59.51 -95.3,-158.77l-7.91 -754.31c25.42,18.63 64.69,169.56 78.39,207.45 25.35,70.11 47.13,141.6 73.62,212.22l149.71 421.95 158.79 0 151.79 -411.95c18.05,-49.82 146.33,-378.51 149.93,-421.73l7.99 762.27c1.29,221.37 -95.33,58.77 -95.33,206.39l460.51 0 0 -63.53c-86.37,-7.18 -95.28,-68.05 -95.28,-158.79l0 -786.05c0,-81.17 20.59,-136.7 95.28,-142.92l0 -63.52 -420.81 0c-19.63,84.25 -249.99,665.54 -254.08,714.59l-15.88 0c-2.95,-35.5 -99.33,-309.81 -118.03,-366.3l-91.41 -265.9c-9.48,-28.57 -16.65,-82.39 -44.64,-82.39l-428.75 0 0 39.7z" />
            <path class="fil1"
                d="M13855.07 396.61c0,48.28 95.28,7.09 95.28,127.04l0 881.32c0,119.95 -95.28,78.75 -95.28,127.03l0 39.71 341.41 0 0 -63.53c-93.05,-7.74 -95.69,-59.51 -95.3,-158.77l-7.91 -754.31c24.88,18.23 31.27,65.97 42.69,100.22 12.76,38.29 23.46,73.38 35.7,107.23 25.35,70.11 47.13,141.6 73.61,212.22l149.72 421.95 158.79 0c20.64,-88.59 296.6,-772.23 301.72,-833.68l7.99 762.27c1.29,221.37 -95.33,58.77 -95.33,206.39l460.51 0 0 -63.53c-38.82,-3.23 -67.03,-17.13 -79.97,-47.07 -28.8,-66.65 -15.3,-771.65 -15.3,-897.77 0,-81.17 20.58,-136.7 95.28,-142.92l0 -63.52 -420.81 0c-19.63,84.25 -250,665.54 -254.08,714.59l-15.88 0c-3.33,-40.05 -42.43,-139.14 -56.59,-181.61 -19.88,-59.67 -41.67,-125 -61.43,-184.69 -19.93,-60.19 -40.41,-113.08 -61.59,-176.61 -16.31,-48.9 -45.44,-171.68 -74.45,-171.68l-428.75 0 0 39.7z" />
            <path class="fil1"
                d="M10266.25 420.42c102.91,8.56 95.28,109.26 95.28,206.44 0,130.84 9.06,721.53 -10.86,814.88 -8.61,40.35 -42.59,62.95 -84.42,66.43l0 63.53 468.45 0c0,-165.59 -103.21,64.79 -103.21,-293.78l0 -285.83 404.93 0 0 381.11c0,84.9 -15.5,128.33 -95.28,134.97l0 63.53 468.45 0c0,-92.13 -9.39,-46.27 -60.61,-82.31 -17.67,-12.43 -34.67,-41.71 -34.67,-68.55l0 -897.2c0,-119.95 95.28,-78.76 95.28,-127.04l0 -39.7 -468.45 0 0 63.52c74.68,6.22 95.28,61.74 95.28,142.92l0 317.6 -404.93 0c0,-86.14 -4,-312.71 9.71,-387.28 19.92,-108.35 93.51,-9.98 93.51,-136.75l-468.45 0 0 63.52z" />
            <path class="fil2"
                d="M984.55 2929.41l-163.45 -209.72c-204.62,-280.11 -299.94,-666.63 -264.18,-1019.82 27.25,-269.1 144.39,-512.66 305.06,-719.18 36.29,-46.65 95.55,-110.94 139.63,-146.21 74.76,-59.84 98.53,-95.96 210.63,-162.55 172.94,-102.71 326.14,-172.62 532.49,-213.85 94.55,-18.9 314.34,-45.89 417.09,-31.89 73.53,10.02 105.22,-3.04 257.91,27.93 107.59,21.82 192.45,46.26 292.82,80.36 204.56,69.5 317.61,153.48 487.22,267.06 -8.56,-32.06 -25.84,-36.26 -48.81,-54.41 -20.71,-16.35 -32.51,-33.33 -53.21,-50 -40.53,-32.65 -73.19,-57.95 -116.93,-89.51 -249.8,-180.25 -595.64,-320.34 -908.49,-330.12 -71.97,-2.25 -92.89,-9.56 -198.83,-8.24 -159.88,1.97 -374.21,50.06 -518.84,100.46 -223.35,77.83 -460.38,234.97 -618.16,414.02l-132.69 176.97c-238.02,398.85 -287.96,788.27 -138.37,1241.27 74.23,224.82 277.19,538.8 454.41,680.99 19.88,15.95 41.02,40.13 64.71,46.45z" />
            <path class="fil1"
                d="M13156.36 1484.36c-286.59,0 -262.02,-429.8 -262.02,-635.19 0,-513.08 440.12,-547.57 491.7,-78.83 18.16,165.06 25.64,373.17 -26,528.64 -31.01,93.36 -93.16,185.37 -203.69,185.37zm-547.85 -571.67c0,184.84 3.13,381.45 125.04,518.09 118.4,132.71 245.89,156.81 422.81,156.81 155.26,0 278.99,-51.57 379.29,-152.68 189.77,-191.29 201.52,-749.72 11.92,-945.18 -128.49,-132.48 -249.17,-148.69 -430.92,-148.69 -157.22,0 -273.22,63.83 -371.32,168.58 -73.92,78.93 -136.82,250.41 -136.82,403.08z" />
            <path class="fil1"
                d="M8193.94 420.42c102.91,8.56 95.28,109.26 95.28,206.44 0,130.84 9.06,721.53 -10.86,814.88 -8.61,40.35 -42.59,62.95 -84.42,66.43l0 63.53 873.38 0 15.88 -325.54 -127.03 0c-11.92,51.16 -30.37,111.13 -57.59,148.85 -71.94,99.74 -157.73,73.47 -339.41,73.47l0 -476.39c86.05,0 170.25,-13.89 208.14,38 62.32,85.32 -27.56,89.04 141.22,89.04l0 -357.29 -87.34 0c-50.46,0 0.45,127.03 -150.85,127.03l-111.16 0 0 -428.74c126.56,0 276.53,-22.4 333.9,55.16 20.47,27.68 45.87,87.54 55.16,127.45l127.04 0 0 -285.83 -881.32 0 0 63.52z" />
            <path class="fil1"
                d="M11782.76 2079.85l0 706.64c0,33.41 -13.13,45.34 -37.24,58.05 -40.33,21.25 -34.22,4.35 -34.22,61.05l262.02 0c0,-66.37 5.83,-36.84 -39.63,-63.58 -53.09,-31.23 -31.83,-187.78 -31.83,-285.77 0,-68.81 -0.01,-137.62 0,-206.43 0.03,-80.35 -7.93,-130.58 -7.93,-206.43 27.18,19.91 6.76,1.07 32.65,78.49l144.35 411.45c22.1,55.85 35.67,120.83 61.19,169.06l127.03 0 115.72 -320.97c22.16,-57.83 39.06,-105.5 60.16,-162.16 12.96,-34.77 53.48,-127.83 54.38,-167.94l15.88 0c0,71.27 -8.37,120.61 -8.12,182.44l0.23 397.23c0.59,90.5 3.9,109.41 -71.51,126.98l0 47.64 357.29 0c0,-66.38 5.83,-36.84 -39.63,-63.58 -23.09,-13.59 -31.83,-34.63 -31.83,-71.39l0 -674.88c0,-36.76 8.74,-57.81 31.83,-71.39 45.46,-26.75 39.63,2.79 39.63,-63.59l-309.65 0c-29.22,0 -46.24,75.19 -64.52,126.04 -16.6,46.19 -136.84,408.59 -165.73,429.76 -4.24,-50.94 -159.4,-456.15 -182.61,-555.79l-349.36 0c0,56.71 -6.11,39.8 34.22,61.06 24.11,12.71 37.24,24.64 37.24,58.04z" />
            <path class="fil1"
                d="M6042.24 2079.85l0 706.64c0,33.41 -13.14,45.34 -37.24,58.05 -40.33,21.25 -34.22,4.35 -34.22,61.05l262.02 0c0,-66.37 5.82,-36.84 -39.63,-63.58 -53.09,-31.23 -31.83,-187.78 -31.83,-285.77 0,-68.81 -0.02,-137.62 0,-206.43 0.02,-80.35 -7.94,-130.58 -7.94,-206.43 27.14,19.88 8.08,-2.17 19.73,35.84l218.46 623.16 127.04 0 115.72 -320.97c20.42,-53.31 113.64,-290.17 114.53,-330.1l15.89 0c0,71.27 -8.38,120.61 -8.13,182.44l0.24 397.23c0.59,90.5 3.89,109.41 -71.51,126.98l0 47.64 357.29 0c0,-66.38 5.82,-36.84 -39.63,-63.58 -23.1,-13.59 -31.83,-34.63 -31.83,-71.39l0 -674.88c0,-36.76 8.73,-57.81 31.83,-71.39 45.45,-26.75 39.63,2.79 39.63,-63.59l-309.65 0c-29.22,0 -46.24,75.19 -64.52,126.04l-130.91 361.36c-9.27,27.2 -15.52,54.25 -34.82,68.39 -3.6,-43.23 -72.31,-220.2 -90.36,-274.87l-92.26 -280.92 -349.35 0c0,56.71 -6.11,39.8 34.22,61.06 24.1,12.71 37.24,24.64 37.24,58.04z" />
            <path class="fil1"
                d="M6447.17 610.98l15.88 0c0.79,35.2 21.79,91.45 30.04,120.82l104.95 363.51 -317.6 0c16.05,-33.47 26.58,-79.9 40.84,-117.95 19.69,-52.53 122.97,-331.24 125.9,-366.38zm-547.85 897.2l0 63.53 381.11 0 0 -63.53c-163.24,0 -67.06,-236.09 -31.76,-309.65l373.18 0c26.99,115.88 47.64,113.15 47.64,254.08 0,34.58 -49.06,54.72 -87.34,55.57l0 63.53 492.28 0 0 -63.53c-100.48,-8.36 -120.01,-134.87 -150.83,-246.16 -75.33,-272.01 -170.58,-564.49 -248.98,-838.79 -24.04,-84.13 20.87,-66.33 -243.32,-66.33 -25.79,0 -52.94,94.26 -68.5,137.95l-173.09 462.1c-40.14,104.76 -75.72,203.69 -115.71,305.1 -33.02,83.68 -68.92,243.78 -174.68,246.13z" />
            <path class="fil1"
                d="M7002.96 666.56l127.03 0c48.23,-207.02 97.29,-206.43 262.02,-206.43l0 905.13c0,88.17 -22.42,142.92 -111.15,142.92l0 63.53 492.27 0 0 -63.53c-67.75,-1.51 -103.21,-34.32 -103.21,-103.21l0 -944.84c76.34,0 158.12,-8.38 203.31,58.7 20.18,29.97 47.19,104.74 50.76,147.74l127.04 0 0 -309.65 -1048.06 0 0 309.65z" />
            <path class="fil1"
                d="M9726.34 1587.58c236.51,0 311.16,-38.14 381.11,-39.7l0 -269.96 -127.04 0c-8.99,108.05 -75.03,206.43 -206.43,206.43 -325.92,0 -284.94,-667.62 -211.27,-854.39 77.3,-195.98 260.19,-237.08 360.45,-128.47 25.81,27.96 56.14,91.31 57.25,141.24l127.04 0 0 -262.02c-338.84,-78.94 -710.25,-66.92 -838.88,320.35 -26.05,78.45 -31.13,156.22 -41.31,244.56 -5.68,49.3 12.73,209.14 23.18,260.34 48.15,235.69 203.04,381.61 475.89,381.61z" />
            <path class="fil1"
                d="M12084.48 1587.58c236.51,0 311.16,-38.14 381.11,-39.7l0 -269.96 -127.04 0c-3.54,42.47 -36.23,120.23 -58.55,147.89 -60.61,75.08 -409.89,187.82 -409.89,-441.67 0,-157.14 21.94,-379.3 130.6,-480.76 136.41,-127.38 333.88,-38.66 337.84,139.35l127.04 0 0 -262.02c-173.23,-40.36 -404.9,-72.21 -574.38,13.17 -128.7,64.84 -216.77,163.47 -264.49,307.18 -26.06,78.45 -31.14,156.22 -41.32,244.56 -5.68,49.3 12.73,209.14 23.18,260.34 48.15,235.69 203.04,381.61 475.89,381.61z" />
            <path class="fil1"
                d="M9797.8 2008.39c70.37,16.4 79.39,46.27 79.39,142.92 0,99.43 9.15,600.36 -11.08,663.8 -10.18,31.91 -37.64,35.7 -68.31,42.85l0 47.64 365.23 0c0,-71.2 -2.08,-36.31 -44.73,-66.42 -45.58,-32.18 -26.73,-287.64 -26.73,-378.21 82.96,0 105.11,66.36 166.74,158.79 28.05,42.07 119.1,168.08 119.1,214.38 0,21.71 -30.38,6.94 -38.83,40.57 -1.72,6.86 -0.86,23.16 -0.86,30.89l373.17 0c0,-103.49 -6.92,7.17 -109.66,-144.4 -37.43,-55.21 -254.35,-377.09 -263.51,-411.38l204.6 -232.09c19.28,-19.38 23.16,-31.01 39.66,-47.69 82.19,-83.08 105.1,-14.65 105.1,-109.28l-357.29 0 0 47.64c155.88,3.48 -13.35,205.92 -53.58,248.13 -54.51,57.2 -78.7,125.05 -184.61,125.05l0 -277.9c0,-129.13 71.46,-33.2 71.46,-142.92l-365.23 0 0 47.64z" />
            <path class="fil1"
                d="M10957.01 2429.21c0,-137.83 15.55,-397 198.5,-397 242.48,0 223.06,510.86 160.03,684.07 -59.79,164.33 -358.53,234.13 -358.53,-287.07zm-222.32 7.93c0,252.11 101.5,476.39 373.18,476.39l63.52 0c254.44,0 404.93,-189.28 404.93,-444.63 0,-147.74 -0.48,-285.41 -101.21,-399 -168.6,-190.09 -740.41,-211.62 -740.41,367.23z" />
            <path class="fil1"
                d="M3819.08 420.42c36.85,3.07 74.79,25.74 84.09,58.84 18.75,66.69 18.66,876.59 0.34,962.49 -8.61,40.35 -42.6,62.95 -84.43,66.43l0 63.53 468.45 0c0,-165.59 -103.21,64.79 -103.21,-293.78 0,-108.04 -7.99,-713.99 11.18,-790.74 24.93,-99.85 92.03,-5.95 92.03,-130.28l-468.45 0 0 63.52z" />
            <path class="fil1"
                d="M13640.69 2008.39c70.37,16.4 79.39,46.27 79.39,142.92 0,99.43 9.15,600.36 -11.08,663.8 -10.18,31.91 -37.64,35.7 -68.31,42.85l0 47.64 666.95 0c39.89,0 22.47,-82.15 23.56,-119.35 1.32,-45.44 8.2,-77.96 8.2,-134.72 -160.47,0 -69.34,-2.47 -141.06,113.01 -50.76,81.73 -130.44,61.67 -263.87,61.67l0 -373.17c94.39,0 179.93,-17.29 182.62,103.21l87.34 0 0 -285.83 -87.34 0c-2.69,120.51 -88.24,103.22 -182.62,103.22l0 -333.47c128.42,0 201.13,-18.73 256.35,45.36 71.18,82.63 -25.47,97.56 140.65,97.56l0 -222.32 -690.77 0 0 47.64z" />
            <path class="fil1"
                d="M7169.7 2008.39c70.37,16.4 79.39,46.27 79.39,142.92 0,99.43 9.15,600.36 -11.08,663.8 -10.18,31.91 -37.64,35.7 -68.31,42.85l0 47.64 666.95 0c39.89,0 22.48,-82.15 23.56,-119.35 1.32,-45.44 8.2,-77.96 8.2,-134.72 -160.46,0 -69.34,-2.47 -141.06,113.01 -50.76,81.73 -130.44,61.67 -263.87,61.67l0 -373.17c94.4,0 179.93,-17.29 182.62,103.21l87.34 0 0 -285.83 -87.34 0c-2.69,120.51 -88.23,103.22 -182.62,103.22l0 -333.47c128.42,0 201.13,-18.73 256.35,45.36 71.19,82.63 -25.47,97.56 140.65,97.56l0 -222.32 -690.77 0 0 47.64z" />
            <path class="fil1"
                d="M7979.57 2413.33c0,146.12 3.28,254.49 92.85,375.6 94.85,128.25 322.73,157.09 463.89,93.81 24.09,-10.8 15.17,-10.54 38.75,-16.83l45.8 49.47c35.72,-4.65 60.84,-16.9 97.12,-17.71 0,-73.05 -14.33,-321.58 22.81,-358.31 36.82,-36.4 48.65,8.41 48.65,-70.45l-357.29 0c0,110.58 71.46,14.48 71.46,134.97 0,85.98 15.8,230.25 -111.16,230.25 -175.73,0 -190.56,-264.73 -190.56,-420.81 0,-447.7 326.02,-445.76 385.81,-282.58 21.92,59.83 -6.86,52.33 114.4,52.33l0 -198.5c-32.39,-2.69 -79.84,-17.13 -113.41,-21.57 -165.91,-21.9 -388.67,-20.42 -498.24,124.51 -62.87,83.16 -110.87,179.31 -110.87,325.81z" />
            <path class="fil1"
                d="M9234.06 2159.25c26.23,19.22 14.56,15.14 34.53,84.57l84.57 288.6 -246.14 0c16.17,-69.38 122.84,-322.72 127.04,-373.17zm-428.75 698.7l0 47.64 301.71 0 0 -47.64c-139.36,-11.59 -36.84,-185.09 -31.75,-246.13l293.77 0c23.29,48.54 39.71,134.42 39.71,198.49 0,31.73 -40.13,45.03 -71.46,47.64l0 47.64 389.06 0 0 -47.64c-86.82,-20.22 -80.26,-75.46 -116.13,-185.6l-209.42 -711.61 -190.56 0 -268.76 707.84c-25.65,68.94 -54.38,182.56 -136.17,189.36z" />
            <path class="fil1"
                d="M4867.14 2913.54l166.74 0c14.49,-62.2 237.21,-635.16 272.92,-735.43 95.2,-267.33 124.07,-92.66 124.07,-217.35l-301.71 0 0 47.64c143.58,3.2 43.8,218.79 5.62,315.27l-124.72 351.68c-39.5,-169.54 -102.94,-357.46 -143.11,-523.84 -16.49,-68.3 -30.66,-135.91 55.78,-143.11l0 -47.64 -381.11 0c0,127.27 32.12,-52.66 106.65,210.94 24.25,85.76 48.18,159.96 72.61,244.98l107.56 368.84c9.96,31.15 25.95,101.44 38.7,128.03z" />
            <path class="fil1"
                d="M12918.16 2206.89c0,319.16 404.93,266.29 404.93,492.27 0,149.95 -186.04,168.56 -264.48,89.8 -25.54,-25.64 -52.07,-74.48 -53.12,-121.56l-103.22 0c0,250.61 -34.12,217.43 113.33,236.03 137.2,17.31 316.74,27.04 424.39,-63.54 129.34,-108.82 134.66,-334.44 -80.46,-463 -143.79,-85.93 -234.94,-93.37 -234.94,-241.45 0,-103.46 237.63,-193.33 293.78,47.64l95.28 0 0 -206.43c-65.53,-1.46 -119.74,-23.82 -269.96,-23.82 -170.08,0 -325.53,86.52 -325.53,254.07z" />
            <path class="fil1"
                d="M3787.31 2405.39l0 79.39c0,254.92 126.48,428.75 381.11,428.75 81.01,0 105.12,1.47 188.39,-10.11 32.33,-4.49 77.71,-18.69 113.33,-21.65l0 -214.38 -95.28 0c-22.12,94.96 -49.36,166.74 -166.74,166.74 -242.16,0 -222.3,-505.73 -155.7,-671.78 13.87,-34.57 36.75,-66.54 62.49,-88.37 73.75,-62.53 215.68,-80.9 259.94,109.08l95.28 0c0,-227.2 20.9,-202.3 -82.67,-219.04 -171.29,-27.69 -377.96,-16.66 -490.26,122.49 -60.16,74.54 -109.9,186.51 -109.9,318.86z" />
            <path class="fil1"
                d="M14458.49 2008.39c70.38,16.4 79.4,46.27 79.4,142.92 0,103.46 11.49,600.51 -13.3,661.59 -13.04,32.17 -32.85,37.3 -66.1,45.05l0 47.64 666.95 0 7.91 -206.47c1.62,-30.55 7.98,-38.83 7.98,-71.42l-103.22 0c-1.66,74.56 -43.01,198.5 -150.86,198.5l-134.97 0 0 -722.53c0,-129.13 71.46,-33.2 71.46,-142.92l-365.24 0 0 47.64z" />
            <polygon class="fil1" points="5335.58,2905.59 5526.14,2905.59 5526.14,2699.16 5335.58,2699.16 " />
            <polygon class="fil3" points="984.55,2929.41 984.55,2937.36 993.81,2930.75 " />
            <polygon class="fil4" points="1143.34,3254.95 1143.34,3262.89 1152.6,3256.28 " />
        </g>
    </g>
</svg>
